<?xml version="1.0" encoding="utf-8"?>
<!-- Generator: Adobe Illustrator 15.0.0, SVG Export Plug-In . SVG Version: 6.00 Build 0)  -->
<!DOCTYPE svg PUBLIC "-//W3C//DTD SVG 1.1//EN" "http://www.w3.org/Graphics/SVG/1.1/DTD/svg11.dtd">
<svg version="1.1" id="Layer_1" xmlns="http://www.w3.org/2000/svg" xmlns:xlink="http://www.w3.org/1999/xlink" x="0px" y="0px"
	 width="84.211px" height="84.211px" viewBox="0 0 84.211 84.211" enable-background="new 0 0 84.211 84.211" xml:space="preserve">
<g>
	<rect x="6.105" y="6.106" fill="none" width="72" height="72"/>
	<line fill="none" stroke="#2FAC66" stroke-width="0.3" stroke-linejoin="round" x1="0.106" y1="18.106" x2="18.105" y2="0.106"/>
	<line fill="none" stroke="#2FAC66" stroke-width="0.3" stroke-linejoin="round" x1="0.106" y1="24.106" x2="24.105" y2="0.106"/>
	<line fill="none" stroke="#2FAC66" stroke-width="0.3" stroke-linejoin="round" x1="0.106" y1="12.106" x2="12.105" y2="0.106"/>
	<line fill="none" stroke="#2FAC66" stroke-width="0.3" stroke-linejoin="round" x1="0" y1="6.212" x2="6.211" y2="0"/>
	<line fill="none" stroke="#2FAC66" stroke-width="0.3" stroke-linejoin="round" x1="0.106" y1="30.106" x2="30.105" y2="0.106"/>
	<line fill="none" stroke="#2FAC66" stroke-width="0.3" stroke-linejoin="round" x1="0.106" y1="36.106" x2="36.104" y2="0.106"/>
	<line fill="none" stroke="#2FAC66" stroke-width="0.3" stroke-linejoin="round" x1="0.106" y1="42.106" x2="42.104" y2="0.106"/>
	<line fill="none" stroke="#2FAC66" stroke-width="0.3" stroke-linejoin="round" x1="0.106" y1="48.106" x2="48.104" y2="0.106"/>
	<line fill="none" stroke="#2FAC66" stroke-width="0.3" stroke-linejoin="round" x1="0.106" y1="54.106" x2="54.104" y2="0.106"/>
	<line fill="none" stroke="#2FAC66" stroke-width="0.3" stroke-linejoin="round" x1="0.106" y1="60.106" x2="60.104" y2="0.106"/>
	<line fill="none" stroke="#2FAC66" stroke-width="0.3" stroke-linejoin="round" x1="0.106" y1="66.106" x2="66.104" y2="0.106"/>
	<line fill="none" stroke="#2FAC66" stroke-width="0.3" stroke-linejoin="round" x1="0.106" y1="72.106" x2="72.104" y2="0.106"/>
	<line fill="none" stroke="#2FAC66" stroke-width="0.3" stroke-linejoin="round" x1="0.106" y1="78.106" x2="78.104" y2="0.106"/>
	<line fill="none" stroke="#2FAC66" stroke-width="0.3" stroke-linejoin="round" x1="0.106" y1="84.105" x2="84.104" y2="0.106"/>
	<line fill="none" stroke="#2FAC66" stroke-width="0.3" stroke-linejoin="round" x1="6.106" y1="84.105" x2="84.104" y2="6.106"/>
	<line fill="none" stroke="#2FAC66" stroke-width="0.3" stroke-linejoin="round" x1="12.105" y1="84.105" x2="84.104" y2="12.106"/>
	<line fill="none" stroke="#2FAC66" stroke-width="0.3" stroke-linejoin="round" x1="18.105" y1="84.105" x2="84.104" y2="18.106"/>
	<line fill="none" stroke="#2FAC66" stroke-width="0.3" stroke-linejoin="round" x1="24.105" y1="84.105" x2="84.104" y2="24.106"/>
	<line fill="none" stroke="#2FAC66" stroke-width="0.3" stroke-linejoin="round" x1="30.105" y1="84.105" x2="84.104" y2="30.106"/>
	<line fill="none" stroke="#2FAC66" stroke-width="0.3" stroke-linejoin="round" x1="36.104" y1="84.105" x2="84.104" y2="36.106"/>
	<line fill="none" stroke="#2FAC66" stroke-width="0.3" stroke-linejoin="round" x1="42.104" y1="84.105" x2="84.104" y2="42.106"/>
	<line fill="none" stroke="#2FAC66" stroke-width="0.3" stroke-linejoin="round" x1="48.104" y1="84.105" x2="84.104" y2="48.106"/>
	<line fill="none" stroke="#2FAC66" stroke-width="0.3" stroke-linejoin="round" x1="54.104" y1="84.105" x2="84.104" y2="54.106"/>
	<line fill="none" stroke="#2FAC66" stroke-width="0.3" stroke-linejoin="round" x1="60.104" y1="84.105" x2="84.104" y2="60.106"/>
	<line fill="none" stroke="#2FAC66" stroke-width="0.3" stroke-linejoin="round" x1="66.104" y1="84.105" x2="84.104" y2="66.106"/>
	<line fill="none" stroke="#2FAC66" stroke-width="0.3" stroke-linejoin="round" x1="72.104" y1="84.105" x2="84.104" y2="72.106"/>
	<line fill="none" stroke="#2FAC66" stroke-width="0.3" stroke-linejoin="round" x1="78" y1="84.211" x2="84.211" y2="78.001"/>
</g>
</svg>
